<svg width="15" height="14" viewBox="0 0 15 14" fill="none" xmlns="http://www.w3.org/2000/svg">
<path fill-rule="evenodd" clip-rule="evenodd" d="M2 2V7H4V2H2ZM5.5 2V7.57295L7.67609 11.9251C7.84657 11.8633 8.0032 11.7646 8.13388 11.6339C8.3683 11.3995 8.5 11.0815 8.5 10.75V9.25C8.5 8.83579 8.83579 8.5 9.25 8.5H13.1187L13.1206 8.5C13.1554 8.50009 13.1898 8.49273 13.2215 8.47842C13.2532 8.46412 13.2815 8.44319 13.3044 8.41705C13.3273 8.39091 13.3444 8.36017 13.3545 8.32688C13.3646 8.29359 13.3674 8.25853 13.3628 8.22406L13.362 8.21803L12.6121 2.21874C12.6045 2.15852 12.5753 2.10313 12.5299 2.06288C12.4848 2.02288 12.4267 2.00056 12.3664 2H5.5ZM4.28647 8.5H1.75C1.41848 8.5 1.10054 8.36831 0.866116 8.13388C0.631696 7.89946 0.5 7.58152 0.5 7.25V1.75C0.5 1.41848 0.631696 1.10054 0.866116 0.866117C1.10054 0.631696 1.41848 0.5 1.75 0.5H12.3687L12.3722 0.500008C12.7971 0.501987 13.2067 0.658444 13.5247 0.940195C13.8426 1.22195 14.0473 1.60975 14.1004 2.03126L14.1005 2.03197L14.8501 8.02925C14.8824 8.27481 14.8619 8.52444 14.7902 8.76151C14.7181 8.99964 14.5958 9.21959 14.4317 9.40658C14.2676 9.59357 14.0653 9.74327 13.8385 9.84562C13.6121 9.94781 13.3665 10.0004 13.1181 10H10V10.75C10 11.4793 9.71027 12.1788 9.19454 12.6945C8.67882 13.2103 7.97935 13.5 7.25 13.5C6.96592 13.5 6.70622 13.3395 6.57918 13.0854L4.28647 8.5Z" fill="white"/>
</svg>
