<svg width="15" height="14" viewBox="0 0 15 14" fill="none" xmlns="http://www.w3.org/2000/svg">
<path fill-rule="evenodd" clip-rule="evenodd" d="M6.57918 0.91459C6.70622 0.660502 6.96592 0.5 7.25 0.5C7.97935 0.5 8.67882 0.789731 9.19454 1.30546C9.71027 1.82118 10 2.52065 10 3.25V4H13.1179C13.3664 3.99953 13.6121 4.05216 13.8385 4.15438C14.0653 4.25673 14.2676 4.40643 14.4317 4.59342C14.5958 4.78041 14.7181 5.00036 14.7902 5.23849C14.8619 5.47556 14.8824 5.72518 14.8501 5.97074L14.1004 11.9687C14.0473 12.3903 13.8426 12.7781 13.5247 13.0598C13.2067 13.3416 12.7971 13.498 12.3722 13.5L12.3687 13.5H1.75C1.41848 13.5 1.10054 13.3683 0.866116 13.1339C0.631696 12.8995 0.5 12.5815 0.5 12.25V6.75C0.5 6.41848 0.631696 6.10054 0.866116 5.86612C1.10054 5.6317 1.41848 5.5 1.75 5.5H4.28647L6.57918 0.91459ZM4 7H2V12H4V7ZM5.5 12H12.3664C12.4267 11.9995 12.4847 11.9771 12.5299 11.9371C12.5753 11.8969 12.6045 11.8415 12.6121 11.7813L13.362 5.78197L13.3628 5.77594C13.3674 5.74147 13.3646 5.70641 13.3545 5.67312C13.3444 5.63983 13.3273 5.60909 13.3044 5.58295C13.2815 5.55681 13.2532 5.53589 13.2215 5.52158C13.1898 5.50727 13.1554 5.49991 13.1206 5.5L13.1187 5.5H9.25C8.83579 5.5 8.5 5.16421 8.5 4.75V3.25C8.5 2.91848 8.3683 2.60054 8.13388 2.36612C8.0032 2.23544 7.84657 2.13668 7.67609 2.07486L5.5 6.42705V12Z" fill="white"/>
</svg>
